<svg width="16" height="17" viewBox="0 0 16 17" fill="none" xmlns="http://www.w3.org/2000/svg">
<path d="M15.9995 12.4791V14.8877C16.0004 15.1113 15.9545 15.3327 15.8648 15.5375C15.775 15.7424 15.6434 15.9263 15.4783 16.0775C15.3132 16.2286 15.1183 16.3437 14.906 16.4154C14.6938 16.487 14.4689 16.5136 14.2457 16.4935C11.7702 16.225 9.39235 15.3808 7.30312 14.0286C5.35937 12.7959 3.71141 11.1512 2.47627 9.21134C1.11669 7.11679 0.270593 4.73206 0.00652969 2.25036C-0.0135738 2.02834 0.0128649 1.80457 0.0841619 1.5933C0.155459 1.38203 0.270052 1.1879 0.420646 1.02325C0.57124 0.858607 0.754535 0.72706 0.958861 0.636987C1.16319 0.546914 1.38407 0.500288 1.60744 0.500078H4.02086C4.41128 0.496243 4.78977 0.634222 5.0858 0.888297C5.38182 1.14237 5.57517 1.49521 5.62981 1.88103C5.73168 2.65185 5.92059 3.4087 6.19295 4.13713C6.30118 4.4245 6.32461 4.73682 6.26045 5.03707C6.19629 5.33732 6.04723 5.61292 5.83093 5.83121L4.80925 6.85087C5.95446 8.86092 7.62206 10.5252 9.6361 11.6682L10.6578 10.6485C10.8765 10.4326 11.1527 10.2839 11.4535 10.2198C11.7544 10.1558 12.0673 10.1792 12.3552 10.2872C13.0851 10.559 13.8435 10.7476 14.6158 10.8492C15.0066 10.9042 15.3635 11.1007 15.6186 11.4012C15.8737 11.7017 16.0093 12.0853 15.9995 12.4791Z" fill="#2E80FC"/>
</svg>
