<svg width="177" height="47" viewBox="0 0 177 47" fill="none" xmlns="http://www.w3.org/2000/svg">
<g clip-path="url(#clip0_4101_1346)">
<path d="M47.3133 38.7719V27.109H39.4951V30.9966H35.5938H31.6924H29.5941H27.7756H16.0716C11.7661 30.9966 8.25338 27.5117 8.25338 23.2059V15.4151H27.7756V7.63989H8.25338H0.435181V23.2059C0.435181 31.802 7.42959 38.7719 16.056 38.7719H39.4951H47.3133Z" fill="url(#paint0_linear_4101_1346)"/>
<path d="M47.3599 40.7234H31.739C31.739 45.0137 35.2362 48.5141 39.5572 48.5141H55.1314C55.147 44.2238 51.6653 40.7234 47.3599 40.7234Z" fill="url(#paint1_linear_4101_1346)"/>
<path d="M39.4951 11.5429H43.3965V15.4151V19.3027H51.2147V15.4151V11.5429V3.7522H43.3965H39.4951H35.5938V11.5429H38.5004H39.4951Z" fill="url(#paint2_linear_4101_1346)"/>
<path d="M67.7524 12.5187V5.68823H68.4674V11.8991H72.6019V5.68823H73.3169V12.5187H67.7524ZM73.7365 14.1295V12.3328L73.9231 12.5342H72.6174V11.9146H74.4204V14.1295H73.7365Z" fill="white"/>
<path d="M76.5966 11.8991H80.7155V12.5187H75.866V5.68823H80.5601V6.30777H76.581V11.8991H76.5966ZM76.5188 8.75496H80.1404V9.37451H76.5188V8.75496Z" fill="white"/>
<path d="M83.0625 12.5187H82.332V5.68823H83.0625V12.5187ZM87.4146 9.37451H82.9848V8.73948H87.4146V9.37451ZM87.3524 5.68823H88.0674V12.5187H87.3524V5.68823Z" fill="white"/>
<path d="M91.7667 12.5186V6.1218L91.9688 6.32316H89.3575V5.70361H94.8909V6.32316H92.2952L92.4817 6.1218V12.5186H91.7667Z" fill="white"/>
<path d="M96.1809 12.5187V5.68823H98.7455C99.3206 5.68823 99.8336 5.78116 100.238 5.96703C100.657 6.15289 100.984 6.41619 101.201 6.77243C101.419 7.11318 101.543 7.54686 101.543 8.04249C101.543 8.52264 101.434 8.94083 101.201 9.28158C100.984 9.62232 100.657 9.90112 100.238 10.087C99.818 10.2728 99.3206 10.3658 98.7455 10.3658H96.585L96.9114 10.025V12.5187H96.1809ZM96.8959 10.087L96.5695 9.73074H98.7144C99.3983 9.73074 99.9268 9.57586 100.269 9.28158C100.626 8.98729 100.797 8.5691 100.797 8.027C100.797 7.4849 100.626 7.05122 100.269 6.75694C99.9113 6.46266 99.3983 6.30777 98.7144 6.30777H96.5695L96.8959 5.96703V10.087Z" fill="white"/>
<path d="M108.724 12.5807C108.211 12.5807 107.73 12.4878 107.294 12.3174C106.859 12.147 106.486 11.8992 106.16 11.5894C105.833 11.2797 105.585 10.908 105.414 10.4898C105.227 10.0716 105.149 9.60691 105.149 9.11128C105.149 8.61565 105.243 8.15099 105.414 7.7328C105.6 7.31461 105.849 6.94288 106.175 6.63311C106.502 6.32334 106.875 6.07552 107.31 5.90515C107.745 5.73478 108.227 5.64185 108.74 5.64185C109.237 5.64185 109.704 5.71929 110.139 5.88966C110.574 6.06004 110.947 6.30785 111.242 6.63311L110.776 7.09777C110.496 6.81898 110.185 6.60214 109.843 6.47823C109.501 6.35432 109.144 6.29236 108.74 6.29236C108.336 6.29236 107.947 6.36981 107.59 6.5092C107.232 6.6486 106.937 6.84995 106.673 7.09777C106.408 7.36107 106.206 7.65536 106.066 7.9961C105.927 8.33685 105.849 8.70858 105.849 9.12677C105.849 9.54496 105.927 9.91668 106.066 10.2574C106.206 10.5982 106.424 10.8925 106.673 11.1558C106.937 11.4191 107.248 11.6049 107.59 11.7443C107.947 11.8837 108.32 11.9612 108.74 11.9612C109.128 11.9612 109.501 11.8992 109.843 11.7598C110.185 11.6359 110.496 11.4191 110.776 11.1403L111.242 11.6049C110.947 11.9302 110.574 12.1935 110.139 12.3639C109.688 12.5033 109.222 12.5807 108.724 12.5807Z" fill="white"/>
<path d="M115.61 12.5807C115.097 12.5807 114.615 12.4878 114.18 12.3174C113.744 12.147 113.356 11.8992 113.03 11.5894C112.703 11.2797 112.454 10.908 112.268 10.4898C112.081 10.0716 112.004 9.60691 112.004 9.11128C112.004 8.61565 112.097 8.15099 112.268 7.7328C112.439 7.31461 112.703 6.94288 113.03 6.63311C113.356 6.32334 113.729 6.07552 114.164 5.90515C114.599 5.73478 115.081 5.64185 115.61 5.64185C116.123 5.64185 116.604 5.73478 117.04 5.90515C117.475 6.07552 117.863 6.32334 118.174 6.63311C118.501 6.94288 118.749 7.31461 118.936 7.7328C119.122 8.15099 119.2 8.61565 119.2 9.11128C119.2 9.60691 119.107 10.0716 118.936 10.4898C118.749 10.908 118.501 11.2797 118.174 11.5894C117.848 11.8992 117.475 12.147 117.04 12.3174C116.604 12.5033 116.123 12.5807 115.61 12.5807ZM115.61 11.9457C116.014 11.9457 116.402 11.8682 116.744 11.7288C117.086 11.5894 117.397 11.3881 117.661 11.1403C117.926 10.877 118.128 10.5827 118.268 10.2419C118.407 9.9012 118.485 9.52947 118.485 9.11128C118.485 8.69309 118.407 8.32136 118.268 7.98062C118.128 7.63987 117.926 7.34559 117.661 7.08228C117.397 6.81898 117.102 6.63311 116.744 6.49372C116.402 6.35432 116.014 6.27688 115.61 6.27688C115.206 6.27688 114.817 6.35432 114.459 6.49372C114.102 6.63311 113.807 6.83446 113.542 7.08228C113.278 7.34559 113.076 7.63987 112.936 7.98062C112.796 8.32136 112.719 8.69309 112.719 9.11128C112.719 9.51398 112.796 9.88571 112.936 10.2265C113.076 10.5672 113.278 10.877 113.542 11.1248C113.807 11.3881 114.102 11.574 114.459 11.7134C114.817 11.8682 115.206 11.9457 115.61 11.9457Z" fill="white"/>
<path d="M119.713 14.052L119.729 11.8991H127.065V14.052H126.397V12.5187H120.413L120.397 14.052H119.713ZM125.324 12.1779V6.32326H122.045L121.982 7.98054C121.967 8.49166 121.936 8.98729 121.889 9.45195C121.843 9.91661 121.78 10.3503 121.687 10.722C121.594 11.0937 121.485 11.4035 121.33 11.6358C121.19 11.8682 120.988 12.0076 120.755 12.0385L119.962 11.8991C120.226 11.9146 120.444 11.8217 120.615 11.6203C120.786 11.419 120.925 11.1402 121.019 10.7685C121.112 10.3968 121.19 9.97856 121.236 9.48293C121.283 8.98729 121.314 8.46068 121.33 7.90309L121.407 5.68823H126.024V12.1779H125.324Z" fill="white"/>
<path d="M129.288 11.8991H133.407V12.5187H128.557V5.68823H133.251V6.30777H129.272V11.8991H129.288ZM129.21 8.75496H132.832V9.37451H129.21V8.75496Z" fill="white"/>
<path d="M135.023 12.5186V5.68819H135.738V11.3415L140.121 5.68819H140.774V12.5186H140.059V6.88081L135.692 12.5186H135.023ZM137.883 5.19256C137.386 5.19256 137.013 5.08414 136.717 4.8673C136.438 4.65046 136.282 4.34069 136.282 3.93799H136.826C136.826 4.20129 136.935 4.40264 137.122 4.55753C137.308 4.71242 137.572 4.77437 137.883 4.77437C138.194 4.77437 138.443 4.69693 138.645 4.55753C138.831 4.40264 138.94 4.20129 138.94 3.93799H139.484C139.484 4.34069 139.329 4.65046 139.049 4.8673C138.754 5.08414 138.381 5.19256 137.883 5.19256Z" fill="white"/>
<path d="M146.121 12.5807C145.608 12.5807 145.126 12.4878 144.691 12.3174C144.256 12.147 143.883 11.8992 143.556 11.5894C143.23 11.2797 142.981 10.908 142.81 10.4898C142.624 10.0716 142.546 9.60691 142.546 9.11128C142.546 8.61565 142.639 8.15099 142.81 7.7328C142.997 7.31461 143.245 6.94288 143.572 6.63311C143.898 6.32334 144.271 6.07552 144.707 5.90515C145.142 5.73478 145.624 5.64185 146.136 5.64185C146.634 5.64185 147.1 5.71929 147.535 5.88966C147.971 6.06004 148.344 6.30785 148.639 6.63311L148.173 7.09777C147.893 6.81898 147.582 6.60214 147.24 6.47823C146.898 6.35432 146.541 6.29236 146.136 6.29236C145.732 6.29236 145.344 6.36981 144.986 6.5092C144.629 6.6486 144.333 6.84995 144.069 7.09777C143.805 7.36107 143.603 7.65536 143.463 7.9961C143.323 8.33685 143.245 8.70858 143.245 9.12677C143.245 9.54496 143.323 9.91668 143.463 10.2574C143.603 10.5982 143.821 10.8925 144.069 11.1558C144.333 11.4191 144.644 11.6049 144.986 11.7443C145.344 11.8837 145.717 11.9612 146.136 11.9612C146.525 11.9612 146.898 11.8992 147.24 11.7598C147.582 11.6359 147.893 11.4191 148.173 11.1403L148.639 11.6049C148.344 11.9302 147.971 12.1935 147.535 12.3639C147.085 12.5033 146.618 12.5807 146.121 12.5807Z" fill="white"/>
<path d="M151.421 12.5186V6.1218L151.623 6.32316H149.012V5.70361H154.545V6.32316H151.95L152.136 6.1218V12.5186H151.421Z" fill="white"/>
<path d="M155.835 12.5187V5.68823H158.68C159.41 5.68823 159.97 5.84312 160.389 6.1374C160.809 6.43168 161.011 6.86536 161.011 7.43844C161.011 8.01151 160.809 8.4297 160.421 8.72399C160.016 9.01827 159.504 9.15767 158.851 9.15767L159.022 8.90985C159.783 8.90985 160.374 9.06474 160.763 9.35902C161.167 9.6533 161.353 10.1025 161.353 10.6755C161.353 11.2641 161.151 11.7133 160.731 12.0385C160.312 12.3638 159.69 12.5187 158.866 12.5187H155.835ZM156.55 8.78594H158.649C159.177 8.78594 159.581 8.67752 159.861 8.47617C160.141 8.25933 160.281 7.94956 160.281 7.53137C160.281 7.11318 160.141 6.80341 159.861 6.58657C159.581 6.36973 159.177 6.2768 158.649 6.2768H156.55V8.78594ZM156.55 11.9456H158.866C159.441 11.9456 159.892 11.8372 160.187 11.6203C160.483 11.4035 160.638 11.0782 160.638 10.6291C160.638 10.1799 160.483 9.85465 160.187 9.6533C159.892 9.45195 159.441 9.34353 158.866 9.34353H156.55V11.9456Z" fill="white"/>
<path d="M163.187 12.5187V5.68823H163.902V11.3416L168.286 5.68823H168.938V12.5187H168.223V6.88085L163.84 12.5342H163.187V12.5187Z" fill="white"/>
<path d="M175.42 12.5186V10.2572L175.622 10.4586H173.384C172.84 10.4586 172.373 10.3657 171.985 10.1798C171.596 9.99394 171.301 9.71515 171.099 9.3744C170.897 9.03365 170.788 8.61546 170.788 8.11983C170.788 7.59322 170.897 7.15954 171.114 6.8033C171.332 6.44706 171.658 6.16827 172.062 5.98241C172.466 5.79654 172.948 5.70361 173.492 5.70361H176.15V12.5341H175.42V12.5186ZM170.772 12.5186L172.451 10.1178H173.197L171.549 12.5186H170.772ZM175.42 10.0559V6.10632L175.622 6.30767H173.508C172.871 6.30767 172.373 6.46255 172.031 6.75683C171.689 7.06661 171.503 7.50028 171.503 8.07336C171.503 8.63095 171.658 9.06463 171.985 9.35891C172.311 9.66868 172.793 9.80808 173.43 9.80808H175.606L175.42 10.0559Z" fill="white"/>
<path d="M67.7524 23.8253V16.9949H68.4674V22.6482L72.8506 16.9949H73.5034V23.8253H72.7884V18.1875L68.4053 23.8408H67.7524V23.8253Z" fill="white"/>
<path d="M76.5654 23.8253H75.8348V16.9949H76.5654V23.8253ZM80.9174 20.6811H76.4877V20.0461H80.9174V20.6811ZM80.8553 16.9949H81.5703V23.8253H80.8553V16.9949Z" fill="white"/>
<path d="M84.6169 23.8253H83.8864V16.9949H84.6169V23.8253ZM88.9845 20.6811H84.5547V20.0461H88.9845V20.6811ZM88.9068 16.9949H89.6218V23.8253H88.9068V16.9949Z" fill="white"/>
<path d="M94.9685 23.8871C94.4556 23.8871 93.9737 23.7942 93.5385 23.6238C93.1033 23.4534 92.7147 23.2056 92.3883 22.8958C92.0619 22.5861 91.8132 22.2143 91.6267 21.7962C91.4402 21.378 91.3625 20.9133 91.3625 20.4177C91.3625 19.922 91.4557 19.4574 91.6267 19.0392C91.7977 18.621 92.0619 18.2493 92.3883 17.9395C92.7147 17.6297 93.0878 17.3819 93.523 17.2115C93.9582 17.0412 94.44 16.9482 94.9685 16.9482C95.4814 16.9482 95.9633 17.0412 96.3985 17.2115C96.8337 17.3819 97.2223 17.6297 97.5331 17.9395C97.8595 18.2493 98.1082 18.621 98.2947 19.0392C98.4812 19.4574 98.559 19.922 98.559 20.4177C98.559 20.9133 98.4657 21.378 98.2947 21.7962C98.1082 22.2143 97.8595 22.5861 97.5331 22.8958C97.2067 23.2056 96.8337 23.4534 96.3985 23.6238C95.9477 23.8097 95.4814 23.8871 94.9685 23.8871ZM94.9685 23.2521C95.3726 23.2521 95.7612 23.1746 96.1031 23.0352C96.4451 22.8958 96.756 22.6945 97.0202 22.4467C97.2844 22.1834 97.4865 21.8891 97.6264 21.5483C97.7663 21.2076 97.844 20.8359 97.844 20.4177C97.844 19.9995 97.7663 19.6278 97.6264 19.287C97.4865 18.9463 97.2844 18.652 97.0202 18.3887C96.756 18.1254 96.4606 17.9395 96.1031 17.8001C95.7612 17.6607 95.3726 17.5833 94.9685 17.5833C94.5644 17.5833 94.1758 17.6607 93.8183 17.8001C93.4608 17.9395 93.1655 18.1409 92.9013 18.3887C92.637 18.652 92.435 18.9463 92.2951 19.287C92.1552 19.6278 92.0775 19.9995 92.0775 20.4177C92.0775 20.8204 92.1552 21.1921 92.2951 21.5329C92.435 21.8736 92.637 22.1834 92.9013 22.4312C93.1655 22.6945 93.4608 22.8804 93.8183 23.0198C94.1758 23.1746 94.5488 23.2521 94.9685 23.2521Z" fill="white"/>
<path d="M100.315 23.8253V16.9949H103.16C103.89 16.9949 104.45 17.1498 104.869 17.444C105.289 17.7383 105.491 18.172 105.491 18.7451C105.491 19.3182 105.289 19.7363 104.901 20.0306C104.496 20.3249 103.983 20.4643 103.331 20.4643L103.502 20.2165C104.263 20.2165 104.854 20.3714 105.242 20.6657C105.647 20.9599 105.833 21.4091 105.833 21.9822C105.833 22.5707 105.631 23.0199 105.211 23.3452C104.792 23.6704 104.17 23.8253 103.346 23.8253H100.315ZM101.03 20.0926H103.129C103.657 20.0926 104.061 19.9842 104.341 19.7828C104.621 19.566 104.761 19.2562 104.761 18.838C104.761 18.4198 104.621 18.11 104.341 17.8932C104.061 17.6764 103.657 17.5834 103.129 17.5834H101.03V20.0926ZM101.03 23.2522H103.346C103.921 23.2522 104.372 23.1438 104.667 22.927C104.963 22.7101 105.118 22.3849 105.118 21.9357C105.118 21.4866 104.963 21.1613 104.667 20.9599C104.372 20.7586 103.921 20.6502 103.346 20.6502H101.03V23.2522Z" fill="white"/>
<path d="M106.657 23.8253L109.797 16.9949H110.512L113.651 23.8253H112.89L110.014 17.4131H110.309L107.403 23.8253H106.657ZM107.885 22.0132L108.102 21.4246H112.081L112.299 22.0132H107.885Z" fill="white"/>
<path d="M114.973 23.8253V16.9949H115.688V23.2058H119.822V16.9949H120.537V23.8253H114.973ZM120.957 25.4361V23.6395L121.143 23.8408H119.838V23.2213H121.641V25.4361H120.957Z" fill="white"/>
<path d="M123.086 23.8253V16.9949H123.801V22.6482L128.184 16.9949H128.837V23.8253H128.122V18.1875L123.739 23.8408H123.086V23.8253Z" fill="white"/>
<path d="M135.318 23.8255V21.5641L135.52 21.7655H133.282C132.738 21.7655 132.272 21.6726 131.883 21.4867C131.495 21.3008 131.199 21.022 130.997 20.6813C130.795 20.3405 130.686 19.9223 130.686 19.4267C130.686 18.9001 130.795 18.4664 131.013 18.1102C131.23 17.7539 131.557 17.4752 131.961 17.2893C132.365 17.1034 132.847 17.0105 133.391 17.0105H136.049V23.8409H135.318V23.8255ZM130.671 23.8255L132.35 21.4247H133.096L131.448 23.8255H130.671ZM135.318 21.3628V17.4132L135.52 17.6146H133.406C132.769 17.6146 132.272 17.7694 131.93 18.0637C131.588 18.3735 131.401 18.8072 131.401 19.3802C131.401 19.9378 131.557 20.3715 131.883 20.6658C132.21 20.9756 132.692 21.115 133.329 21.115H135.505L135.318 21.3628Z" fill="white"/>
<path d="M138.365 23.8253V16.9949H138.956L142.095 22.3229H141.784L144.893 16.9949H145.484V23.8253H144.784V18.0791H144.955L142.095 22.958H141.753L138.878 18.0791H139.064V23.8253H138.365Z" fill="white"/>
<path d="M67.7524 35.132V28.3015H70.5968C71.3274 28.3015 71.8869 28.4564 72.3066 28.7507C72.7262 29.045 72.9283 29.4786 72.9283 30.0517C72.9283 30.6248 72.7262 31.043 72.3377 31.3373C71.9335 31.6316 71.4206 31.7709 70.7678 31.7709L70.9388 31.5231C71.7004 31.5231 72.291 31.678 72.6796 31.9723C73.0837 32.2666 73.2703 32.7157 73.2703 33.2888C73.2703 33.8774 73.0682 34.3266 72.6485 34.6518C72.2289 34.9771 71.6071 35.132 70.7834 35.132H67.7524ZM68.4674 31.3992H70.5657C71.0942 31.3992 71.4983 31.2908 71.7781 31.0895C72.0579 30.8881 72.1978 30.5628 72.1978 30.1446C72.1978 29.7265 72.0579 29.4167 71.7781 29.1998C71.4983 28.983 71.0942 28.8901 70.5657 28.8901H68.4674V31.3992ZM68.4674 34.5589H70.7834C71.3584 34.5589 71.8092 34.4505 72.1045 34.2336C72.3998 34.0168 72.5553 33.6915 72.5553 33.2424C72.5553 32.7932 72.3998 32.4679 72.1045 32.2666C71.8092 32.0652 71.3584 31.9568 70.7834 31.9568H68.4674V34.5589Z" fill="white"/>
<path d="M77.6846 35.132V28.3015H80.2492C80.8243 28.3015 81.3372 28.3944 81.7413 28.5803C82.161 28.7662 82.4874 29.0295 82.705 29.3857C82.9226 29.7265 83.047 30.1601 83.047 30.6558C83.047 31.1359 82.9381 31.5541 82.705 31.8949C82.4874 32.2356 82.161 32.5144 81.7413 32.7003C81.3217 32.8861 80.8243 32.9791 80.2492 32.9791H78.0887L78.4151 32.6383V35.132H77.6846ZM78.4151 32.7003L78.0887 32.344H80.2336C80.9175 32.344 81.446 32.1891 81.788 31.8949C82.1299 31.6006 82.3164 31.1824 82.3164 30.6403C82.3164 30.0982 82.1455 29.6645 81.788 29.3702C81.4305 29.0759 80.9175 28.9211 80.2336 28.9211H78.0887L78.4151 28.5803V32.7003Z" fill="white"/>
<path d="M85.2695 34.5124H89.3885V35.132H84.5546V28.3015H89.2486V28.9211H85.2695V34.5124ZM85.1918 31.3682H88.8134V31.9878H85.1918V31.3682Z" fill="white"/>
<path d="M94.0047 35.194C93.4917 35.194 93.0099 35.1011 92.5747 34.9307C92.1395 34.7603 91.7665 34.5125 91.4401 34.2027C91.1136 33.893 90.865 33.5212 90.694 33.103C90.5075 32.6849 90.4297 32.2202 90.4297 31.7246C90.4297 31.2289 90.523 30.7643 90.694 30.3461C90.8805 29.9279 91.1292 29.5562 91.4556 29.2464C91.782 28.9366 92.155 28.6888 92.5902 28.5184C93.0255 28.3481 93.5073 28.2551 94.0202 28.2551C94.5176 28.2551 94.9839 28.3326 95.4191 28.5029C95.8543 28.6733 96.2273 28.9211 96.5227 29.2464L96.0564 29.7111C95.7766 29.4323 95.4657 29.2154 95.1238 29.0915C94.7818 28.9676 94.4243 28.9056 94.0202 28.9056C93.6161 28.9056 93.2275 28.9831 92.87 29.1225C92.5125 29.2619 92.2172 29.4632 91.953 29.7111C91.6887 29.9744 91.4867 30.2686 91.3468 30.6094C91.2069 30.9501 91.1292 31.3219 91.1292 31.7401C91.1292 32.1428 91.2069 32.53 91.3468 32.8707C91.4867 33.2115 91.7043 33.5057 91.953 33.7691C92.2172 34.0324 92.5281 34.2182 92.87 34.3576C93.2275 34.497 93.6006 34.5745 94.0202 34.5745C94.4088 34.5745 94.7818 34.5125 95.1238 34.3731C95.4657 34.2492 95.7766 34.0324 96.0564 33.7536L96.5227 34.2182C96.2273 34.5435 95.8543 34.8068 95.4191 34.9772C94.9683 35.1166 94.502 35.194 94.0047 35.194Z" fill="white"/>
<path d="M98.0306 35.132V28.3015H103.797V35.132H103.082V28.7352L103.269 28.9365H98.5591L98.7456 28.7352V35.132H98.0306Z" fill="white"/>
<path d="M108.149 33.9084L105.18 28.3015H105.957L108.538 33.3043L108.149 33.9084ZM106.02 34.466C106.346 34.5899 106.672 34.6208 106.952 34.5589C107.247 34.4969 107.512 34.2646 107.76 33.8774L108.087 33.3508L108.149 33.2578L110.776 28.317H111.506L108.398 34.0323C108.196 34.435 107.947 34.7293 107.652 34.9151C107.372 35.1165 107.061 35.2094 106.75 35.2249C106.439 35.2404 106.113 35.1784 105.802 35.0545L106.02 34.466Z" fill="white"/>
<path d="M112.672 35.132V28.3015H117.693V28.9211H113.387V31.1514H115.625C116.434 31.1514 117.055 31.3218 117.475 31.647C117.895 31.9723 118.112 32.4524 118.112 33.103C118.112 33.7535 117.879 34.2646 117.428 34.6208C116.978 34.9771 116.325 35.1475 115.47 35.1475H112.672V35.132ZM113.387 34.5589H115.47C116.107 34.5589 116.589 34.435 116.9 34.1872C117.211 33.9393 117.382 33.5831 117.382 33.1185C117.382 32.1891 116.744 31.7245 115.47 31.7245H113.387V34.5589Z" fill="white"/>
<path d="M119.107 35.1938C119.014 35.1938 118.921 35.1938 118.843 35.1783C118.765 35.1628 118.656 35.1473 118.563 35.1319L118.625 34.4813C118.734 34.5123 118.843 34.5278 118.952 34.5278C119.247 34.5278 119.48 34.4194 119.667 34.1871C119.853 33.9547 119.978 33.5985 120.071 33.1183C120.164 32.6382 120.226 32.0032 120.242 31.2442L120.335 28.3169H124.982V35.1473H124.267V28.7506L124.454 28.9519H120.786L120.957 28.7506L120.863 31.2442C120.832 31.9257 120.786 32.5143 120.724 33.0099C120.661 33.5056 120.553 33.9237 120.413 34.249C120.273 34.5743 120.102 34.8221 119.884 34.977C119.682 35.1164 119.418 35.1938 119.107 35.1938Z" fill="white"/>
<path d="M127.314 35.132V28.3015H128.029V33.9548L132.412 28.3015H133.065V35.132H132.35V29.4786L127.967 35.132H127.314Z" fill="white"/>
<path d="M135.396 35.132V28.3015H136.096V35.132H135.396ZM135.894 32.0033V31.3682H138.038V32.0033H135.894ZM138.101 31.8019L137.432 31.678L139.981 28.3015H140.758L138.101 31.8019ZM140.09 35.132L137.463 31.7245L138.054 31.3682L140.929 35.132H140.09Z" fill="white"/>
<path d="M142.779 34.5124H146.898V35.132H142.064V28.3015H146.758V28.9211H142.779V34.5124ZM142.701 31.3682H146.323V31.9878H142.701V31.3682Z" fill="white"/>
<path d="M67.7524 46.4388V39.6084H72.7729V40.2279H68.4674V42.4583H70.7056C71.5139 42.4583 72.1356 42.6287 72.5553 42.9539C72.9749 43.2792 73.1925 43.7593 73.1925 44.4098C73.1925 45.0604 72.9594 45.5715 72.5086 45.9277C72.0579 46.284 71.4051 46.4543 70.5502 46.4543H67.7524V46.4388ZM68.4674 45.8658H70.5502C71.1875 45.8658 71.6693 45.7419 71.9802 45.494C72.291 45.2462 72.462 44.89 72.462 44.4253C72.462 43.496 71.8247 43.0314 70.5502 43.0314H68.4674V45.8658Z" fill="white"/>
<path d="M73.8764 46.4388L77.0161 39.6084H77.7311L80.8708 46.4388H80.1092L77.2337 40.0266H77.529L74.6536 46.4388H73.8764ZM75.1043 44.6267L75.3219 44.0381H79.301L79.5186 44.6267H75.1043Z" fill="white"/>
<path d="M86.2022 45.8192L86.0312 46.0205V39.6238H86.7462V46.0205L86.5441 45.8192H90.0569L89.8548 46.0205V39.6238H90.5698V46.4542H82.1609V39.6238H82.8759V46.0205L82.6894 45.8192H86.2022Z" fill="white"/>
<path d="M92.9169 46.4388V39.6084H93.6163V46.4388H92.9169ZM93.3987 43.3102V42.6751H95.5437V43.3102H93.3987ZM95.6214 43.1088L94.953 42.9849L97.5021 39.6084H98.2793L95.6214 43.1088ZM97.6109 46.4388L94.9841 43.0314L95.5748 42.6751L98.4502 46.4388H97.6109Z" fill="white"/>
<path d="M102.569 46.5006C102.056 46.5006 101.574 46.4077 101.139 46.2373C100.704 46.067 100.315 45.8191 99.9889 45.5094C99.6625 45.1996 99.4138 44.8279 99.2273 44.4097C99.0408 43.9915 98.9631 43.5268 98.9631 43.0312C98.9631 42.5356 99.0563 42.0709 99.2273 41.6527C99.3983 41.2345 99.6625 40.8628 99.9889 40.553C100.315 40.2433 100.688 39.9954 101.124 39.8251C101.559 39.6547 102.041 39.5618 102.569 39.5618C103.082 39.5618 103.564 39.6547 103.999 39.8251C104.434 39.9954 104.823 40.2433 105.134 40.553C105.46 40.8628 105.709 41.2345 105.895 41.6527C106.082 42.0709 106.16 42.5356 106.16 43.0312C106.16 43.5268 106.066 43.9915 105.895 44.4097C105.709 44.8279 105.46 45.1996 105.134 45.5094C104.807 45.8191 104.434 46.067 103.999 46.2373C103.564 46.4232 103.082 46.5006 102.569 46.5006ZM102.569 45.8656C102.973 45.8656 103.362 45.7882 103.704 45.6488C104.046 45.5094 104.357 45.308 104.621 45.0602C104.885 44.7969 105.087 44.5026 105.227 44.1619C105.367 43.8211 105.445 43.4494 105.445 43.0312C105.445 42.6285 105.367 42.2413 105.227 41.9005C105.087 41.5598 104.885 41.2655 104.621 41.0022C104.357 40.7389 104.061 40.553 103.704 40.4136C103.346 40.2742 102.973 40.1968 102.569 40.1968C102.165 40.1968 101.776 40.2742 101.419 40.4136C101.061 40.553 100.766 40.7544 100.502 41.0022C100.238 41.2655 100.036 41.5598 99.8957 41.9005C99.7558 42.2413 99.6781 42.613 99.6781 43.0312C99.6781 43.4339 99.7558 43.8056 99.8957 44.1464C100.036 44.4871 100.238 44.7969 100.502 45.0447C100.766 45.308 101.061 45.4939 101.419 45.6333C101.776 45.7882 102.165 45.8656 102.569 45.8656Z" fill="white"/>
<path d="M107.916 46.4388V39.6084H110.48C111.056 39.6084 111.568 39.7013 111.973 39.8872C112.392 40.0731 112.719 40.3364 112.936 40.6926C113.154 41.0333 113.278 41.467 113.278 41.9627C113.278 42.4428 113.169 42.861 112.936 43.2017C112.719 43.5425 112.392 43.8213 111.973 44.0071C111.553 44.193 111.056 44.2859 110.48 44.2859H108.32L108.646 43.9452V46.4388H107.916ZM108.646 44.0071L108.32 43.6509H110.465C111.149 43.6509 111.677 43.496 112.019 43.2017C112.361 42.9075 112.548 42.4893 112.548 41.9472C112.548 41.4051 112.377 40.9714 112.019 40.6771C111.662 40.3828 111.149 40.2279 110.465 40.2279H108.32L108.646 39.8872V44.0071Z" fill="white"/>
<path d="M115.921 46.4387V40.042L116.123 40.2433H113.511V39.6238H119.045V40.2433H116.449L116.636 40.042V46.4387H115.921Z" fill="white"/>
<path d="M123.241 46.5006C122.728 46.5006 122.247 46.4077 121.811 46.2373C121.376 46.067 120.988 45.8191 120.661 45.5094C120.335 45.1996 120.086 44.8279 119.9 44.4097C119.713 43.9915 119.635 43.5268 119.635 43.0312C119.635 42.5356 119.729 42.0709 119.9 41.6527C120.071 41.2345 120.335 40.8628 120.661 40.553C120.988 40.2433 121.361 39.9954 121.796 39.8251C122.231 39.6547 122.713 39.5618 123.241 39.5618C123.754 39.5618 124.236 39.6547 124.671 39.8251C125.107 39.9954 125.495 40.2433 125.806 40.553C126.132 40.8628 126.381 41.2345 126.568 41.6527C126.754 42.0709 126.832 42.5356 126.832 43.0312C126.832 43.5268 126.739 43.9915 126.568 44.4097C126.381 44.8279 126.132 45.1996 125.806 45.5094C125.48 45.8191 125.107 46.067 124.671 46.2373C124.236 46.4232 123.754 46.5006 123.241 46.5006ZM123.241 45.8656C123.646 45.8656 124.034 45.7882 124.376 45.6488C124.718 45.5094 125.029 45.308 125.293 45.0602C125.557 44.7969 125.759 44.5026 125.899 44.1619C126.039 43.8211 126.117 43.4494 126.117 43.0312C126.117 42.6285 126.039 42.2413 125.899 41.9005C125.759 41.5598 125.557 41.2655 125.293 41.0022C125.029 40.7389 124.734 40.553 124.376 40.4136C124.019 40.2742 123.646 40.1968 123.241 40.1968C122.837 40.1968 122.449 40.2742 122.091 40.4136C121.734 40.553 121.438 40.7544 121.174 41.0022C120.91 41.2655 120.708 41.5598 120.568 41.9005C120.428 42.2413 120.35 42.613 120.35 43.0312C120.35 43.4339 120.428 43.8056 120.568 44.1464C120.708 44.4871 120.91 44.7969 121.174 45.0447C121.438 45.308 121.734 45.4939 122.091 45.6333C122.449 45.7882 122.837 45.8656 123.241 45.8656Z" fill="white"/>
<path d="M131.588 46.5006C131.075 46.5006 130.593 46.4077 130.158 46.2373C129.723 46.067 129.35 45.8191 129.023 45.5094C128.697 45.1996 128.448 44.8279 128.277 44.4097C128.091 43.9915 128.013 43.5268 128.013 43.0312C128.013 42.5356 128.106 42.0709 128.277 41.6527C128.464 41.2345 128.713 40.8628 129.039 40.553C129.365 40.2433 129.738 39.9954 130.174 39.8251C130.609 39.6547 131.091 39.5618 131.604 39.5618C132.101 39.5618 132.567 39.6392 133.002 39.8096C133.438 39.98 133.811 40.2278 134.106 40.553L133.64 41.0177C133.36 40.7389 133.049 40.5221 132.707 40.3982C132.365 40.2742 132.008 40.2123 131.604 40.2123C131.199 40.2123 130.811 40.2897 130.453 40.4291C130.096 40.5685 129.801 40.7699 129.536 41.0177C129.272 41.281 129.07 41.5753 128.93 41.916C128.79 42.2568 128.713 42.6285 128.713 43.0467C128.713 43.4494 128.79 43.8366 128.93 44.1774C129.07 44.5181 129.288 44.8124 129.536 45.0757C129.801 45.339 130.111 45.5249 130.453 45.6643C130.811 45.8037 131.184 45.8811 131.604 45.8811C131.992 45.8811 132.365 45.8191 132.707 45.6797C133.049 45.5558 133.36 45.339 133.64 45.0602L134.106 45.5249C133.811 45.8501 133.438 46.1134 133.002 46.2838C132.552 46.4232 132.085 46.5006 131.588 46.5006Z" fill="white"/>
<path d="M136.888 46.4387V40.042L137.09 40.2433H134.479V39.6238H140.012V40.2433H137.417L137.603 40.042V46.4387H136.888Z" fill="white"/>
<path d="M139.95 46.4388L143.09 39.6084H143.805L146.945 46.4388H146.183L143.308 40.0266H143.603L140.727 46.4388H139.95ZM141.194 44.6267L141.411 44.0381H145.39L145.608 44.6267H141.194Z" fill="white"/>
<path d="M148.997 46.4388H148.266V39.6084H148.997V46.4388ZM153.349 43.2947H148.919V42.6596H153.349V43.2947ZM153.286 39.6084H154.001V46.4388H153.286V39.6084Z" fill="white"/>
</g>
<defs>
<linearGradient id="paint0_linear_4101_1346" x1="-4.38227" y1="23.0102" x2="57.4097" y2="23.4884" gradientUnits="userSpaceOnUse">
<stop stop-color="#49E962"/>
<stop offset="1" stop-color="#2E80FC"/>
</linearGradient>
<linearGradient id="paint1_linear_4101_1346" x1="-4.5467" y1="44.2502" x2="57.2453" y2="44.7284" gradientUnits="userSpaceOnUse">
<stop stop-color="#49E962"/>
<stop offset="1" stop-color="#2E80FC"/>
</linearGradient>
<linearGradient id="paint2_linear_4101_1346" x1="-4.29033" y1="11.138" x2="57.5016" y2="11.6162" gradientUnits="userSpaceOnUse">
<stop stop-color="#49E962"/>
<stop offset="1" stop-color="#2E80FC"/>
</linearGradient>
<clipPath id="clip0_4101_1346">
<rect width="176.415" height="47" fill="white"/>
</clipPath>
</defs>
</svg>
