<svg width="592" height="152" viewBox="0 0 592 152" fill="none" xmlns="http://www.w3.org/2000/svg">
<path d="M158.15 118.88V79.2887H131.84V92.4859H118.711H105.582H98.5211H92.4012H53.0147C38.5259 92.4859 26.7048 80.6557 26.7048 66.0388V39.5918H92.4012V13.1973H26.7048H0.394775V66.0388C0.394775 95.22 23.9325 118.88 52.9624 118.88H131.84H158.15Z" fill="url(#paint0_linear_3697_10661)"/>
<path d="M158.307 125.505H105.739C105.739 140.07 117.508 151.952 132.049 151.952H184.46C184.512 137.388 172.795 125.505 158.307 125.505Z" fill="url(#paint1_linear_3697_10661)"/>
<path d="M131.84 26.4471H144.969V39.5918V52.789H171.279V39.5918V26.4471V0H144.969H131.84H118.711V26.4471H128.492H131.84Z" fill="url(#paint2_linear_3697_10661)"/>
<path d="M226.932 29.7596V6.57236H229.339V27.6564H243.252V6.57236H245.658V29.7596H226.932ZM247.07 35.2277V29.1286L247.698 29.8121H243.304V27.709H249.372V35.2277H247.07Z" fill="#1D1D1B"/>
<path d="M256.695 27.6564H270.556V29.7596H254.236V6.57236H270.033V8.6755H256.642V27.6564H256.695ZM256.433 16.9829H268.62V19.0861H256.433V16.9829Z" fill="#1D1D1B"/>
<path d="M278.454 29.7596H275.996V6.57236H278.454V29.7596ZM293.1 19.0861H278.192V16.9304H293.1V19.0861ZM292.89 6.57236H295.297V29.7596H292.89V6.57236Z" fill="#1D1D1B"/>
<path d="M307.745 29.7596V8.04458L308.425 8.7281H299.638V6.62495H318.259V8.7281H309.524L310.152 8.04458V29.7596H307.745Z" fill="#1D1D1B"/>
<path d="M322.6 29.7596V6.57236H331.231C333.166 6.57236 334.892 6.88783 336.252 7.51877C337.665 8.14972 338.763 9.04356 339.495 10.2529C340.228 11.4096 340.646 12.8818 340.646 14.5643C340.646 16.1943 340.28 17.6139 339.495 18.7706C338.763 19.9273 337.665 20.8738 336.252 21.5047C334.84 22.1356 333.166 22.4511 331.231 22.4511H323.96L325.059 21.2944V29.7596H322.6ZM325.007 21.5047L323.908 20.2954H331.126C333.428 20.2954 335.206 19.7696 336.357 18.7706C337.56 17.7716 338.135 16.352 338.135 14.5117C338.135 12.6715 337.56 11.1993 336.357 10.2003C335.154 9.20129 333.428 8.6755 331.126 8.6755H323.908L325.007 7.51877V21.5047Z" fill="#1D1D1B"/>
<path d="M364.811 29.9699C363.085 29.9699 361.464 29.6544 359.999 29.076C358.535 28.4977 357.279 27.6564 356.181 26.6048C355.082 25.5533 354.246 24.2914 353.67 22.8717C353.043 21.4521 352.781 19.8748 352.781 18.1922C352.781 16.5097 353.095 14.9324 353.67 13.5127C354.298 12.0931 355.135 10.8312 356.233 9.77965C357.332 8.72807 358.587 7.88681 360.052 7.30845C361.516 6.73008 363.138 6.41461 364.864 6.41461C366.537 6.41461 368.107 6.67751 369.571 7.25587C371.036 7.83424 372.291 8.6755 373.285 9.77965L371.716 11.357C370.774 10.4106 369.728 9.67449 368.577 9.25386C367.427 8.83323 366.224 8.62292 364.864 8.62292C363.504 8.62292 362.196 8.88581 360.993 9.35902C359.79 9.83223 358.796 10.5157 357.907 11.357C357.018 12.2508 356.338 13.2498 355.867 14.4066C355.396 15.5633 355.135 16.8252 355.135 18.2448C355.135 19.6644 355.396 20.9263 355.867 22.0831C356.338 23.2398 357.07 24.2388 357.907 25.1326C358.796 26.0265 359.842 26.6574 360.993 27.1306C362.196 27.6038 363.451 27.8667 364.864 27.8667C366.171 27.8667 367.427 27.6564 368.577 27.1832C369.728 26.7626 370.774 26.0265 371.716 25.08L373.285 26.6574C372.291 27.7616 371.036 28.6554 369.571 29.2338C368.054 29.707 366.485 29.9699 364.811 29.9699Z" fill="#1D1D1B"/>
<path d="M387.983 29.9699C386.257 29.9699 384.635 29.6544 383.171 29.076C381.706 28.4977 380.399 27.6564 379.3 26.6048C378.202 25.5533 377.365 24.2914 376.737 22.8717C376.109 21.4521 375.848 19.8748 375.848 18.1922C375.848 16.5097 376.162 14.9324 376.737 13.5127C377.313 12.0931 378.202 10.8312 379.3 9.77965C380.399 8.72807 381.654 7.88681 383.119 7.30845C384.583 6.73008 386.205 6.41461 387.983 6.41461C389.709 6.41461 391.331 6.73008 392.795 7.30845C394.26 7.88681 395.567 8.72807 396.614 9.77965C397.712 10.8312 398.549 12.0931 399.177 13.5127C399.804 14.9324 400.066 16.5097 400.066 18.1922C400.066 19.8748 399.752 21.4521 399.177 22.8717C398.549 24.2914 397.712 25.5533 396.614 26.6048C395.515 27.6564 394.26 28.4977 392.795 29.076C391.331 29.707 389.709 29.9699 387.983 29.9699ZM387.983 27.8141C389.343 27.8141 390.651 27.5512 391.801 27.078C392.952 26.6048 393.998 25.9213 394.887 25.08C395.777 24.1862 396.457 23.1872 396.927 22.0305C397.398 20.8737 397.66 19.6119 397.66 18.1922C397.66 16.7726 397.398 15.5107 396.927 14.354C396.457 13.1973 395.777 12.1983 394.887 11.3044C393.998 10.4106 393.004 9.77965 391.801 9.30644C390.651 8.83323 389.343 8.57034 387.983 8.57034C386.623 8.57034 385.315 8.83323 384.112 9.30644C382.909 9.77965 381.915 10.4632 381.026 11.3044C380.137 12.1983 379.457 13.1973 378.986 14.354C378.516 15.5107 378.254 16.7726 378.254 18.1922C378.254 19.5593 378.516 20.8212 378.986 21.9779C379.457 23.1346 380.137 24.1862 381.026 25.0275C381.915 25.9213 382.909 26.5522 384.112 27.0255C385.315 27.5512 386.623 27.8141 387.983 27.8141Z" fill="#1D1D1B"/>
<path d="M401.792 34.9648L401.844 27.6564H426.533V34.9648H424.283V29.7596H404.146L404.093 34.9648H401.792ZM420.674 28.6028V8.72808H409.638L409.428 14.354C409.376 16.0891 409.272 17.7716 409.115 19.349C408.958 20.9263 408.748 22.3985 408.435 23.6604C408.121 24.9223 407.755 25.9739 407.232 26.7626C406.761 27.5513 406.081 28.0245 405.296 28.1296L402.629 27.6564C403.518 27.709 404.25 27.3935 404.826 26.71C405.401 26.0265 405.872 25.0801 406.185 23.8182C406.499 22.5563 406.761 21.1367 406.918 19.4541C407.075 17.7716 407.179 15.9839 407.232 14.0911L407.493 6.57236H423.028V28.6028H420.674Z" fill="#1D1D1B"/>
<path d="M434.012 27.6564H447.874V29.7596H431.554V6.57236H447.351V8.6755H433.96V27.6564H434.012ZM433.751 16.9829H445.938V19.0861H433.751V16.9829Z" fill="#1D1D1B"/>
<path d="M453.313 29.7596V6.57236H455.72V25.7636L470.47 6.57236H472.667V29.7596H470.261V10.6209L455.563 29.7596H453.313ZM462.938 4.88984C461.264 4.88984 460.009 4.52179 459.015 3.78569C458.073 3.04959 457.55 1.99801 457.55 0.630966H459.381C459.381 1.5248 459.747 2.20833 460.375 2.73411C461.002 3.2599 461.892 3.47021 462.938 3.47021C463.984 3.47021 464.821 3.20732 465.501 2.73411C466.128 2.20833 466.495 1.5248 466.495 0.630966H468.325C468.325 1.99801 467.802 3.04959 466.861 3.78569C465.867 4.52179 464.612 4.88984 462.938 4.88984Z" fill="#1D1D1B"/>
<path d="M490.66 29.9699C488.934 29.9699 487.312 29.6544 485.848 29.076C484.383 28.4977 483.128 27.6564 482.029 26.6048C480.931 25.5533 480.094 24.2914 479.519 22.8717C478.891 21.4521 478.63 19.8748 478.63 18.1922C478.63 16.5097 478.943 14.9324 479.519 13.5127C480.146 12.0931 480.983 10.8312 482.082 9.77965C483.18 8.72807 484.436 7.88681 485.9 7.30845C487.365 6.73008 488.986 6.41461 490.712 6.41461C492.386 6.41461 493.955 6.67751 495.42 7.25587C496.884 7.83424 498.14 8.6755 499.134 9.77965L497.564 11.357C496.623 10.4106 495.577 9.67449 494.426 9.25386C493.275 8.83323 492.072 8.62292 490.712 8.62292C489.352 8.62292 488.045 8.88581 486.842 9.35902C485.639 9.83223 484.645 10.5157 483.756 11.357C482.866 12.2508 482.186 13.2498 481.716 14.4066C481.245 15.5633 480.983 16.8252 480.983 18.2448C480.983 19.6644 481.245 20.9263 481.716 22.0831C482.186 23.2398 482.919 24.2388 483.756 25.1326C484.645 26.0265 485.691 26.6574 486.842 27.1306C488.045 27.6038 489.3 27.8667 490.712 27.8667C492.02 27.8667 493.275 27.6564 494.426 27.1832C495.577 26.7626 496.623 26.0265 497.564 25.08L499.134 26.6574C498.14 27.7616 496.884 28.6554 495.42 29.2338C493.903 29.707 492.334 29.9699 490.66 29.9699Z" fill="#1D1D1B"/>
<path d="M508.496 29.7596V8.04458L509.176 8.7281H500.389V6.62495H519.01V8.7281H510.275L510.902 8.04458V29.7596H508.496Z" fill="#1D1D1B"/>
<path d="M523.351 29.7596V6.57236H532.923C535.382 6.57236 537.265 7.09814 538.677 8.09714C540.089 9.09613 540.769 10.5683 540.769 12.5137C540.769 14.4592 540.089 15.8788 538.782 16.8778C537.422 17.8768 535.695 18.35 533.499 18.35L534.074 17.5087C536.637 17.5087 538.625 18.0345 539.932 19.0335C541.292 20.0325 541.92 21.5573 541.92 23.5027C541.92 25.5007 541.24 27.0255 539.828 28.1296C538.415 29.2338 536.323 29.7596 533.551 29.7596H523.351ZM525.757 17.0881H532.819C534.597 17.0881 535.957 16.72 536.898 16.0365C537.84 15.3004 538.311 14.2488 538.311 12.8292C538.311 11.4096 537.84 10.358 536.898 9.62192C535.957 8.88582 534.597 8.57035 532.819 8.57035H525.757V17.0881ZM525.757 27.8141H533.551C535.486 27.8141 537.003 27.4461 537.997 26.71C538.991 25.9739 539.514 24.8697 539.514 23.345C539.514 21.8202 538.991 20.716 537.997 20.0325C537.003 19.349 535.486 18.9809 533.551 18.9809H525.757V27.8141Z" fill="#1D1D1B"/>
<path d="M548.092 29.7596V6.57236H550.498V25.7636L565.248 6.57236H567.445V29.7596H565.039V10.6209L550.289 29.8121H548.092V29.7596Z" fill="#1D1D1B"/>
<path d="M589.257 29.7596V22.0831L589.937 22.7666H582.405C580.574 22.7666 579.005 22.4511 577.697 21.8202C576.39 21.1892 575.396 20.2428 574.716 19.0861C574.036 17.9294 573.67 16.5097 573.67 14.8272C573.67 13.0396 574.036 11.5674 574.768 10.358C575.5 9.14873 576.599 8.20231 577.959 7.57137C579.319 6.94043 580.94 6.62495 582.771 6.62495H591.715V29.8122H589.257V29.7596ZM573.617 29.7596L579.266 21.6099H581.777L576.233 29.7596H573.617ZM589.257 21.3996V7.992L589.937 8.67552H582.823C580.679 8.67552 579.005 9.20131 577.854 10.2003C576.703 11.2519 576.076 12.7241 576.076 14.6695C576.076 16.5623 576.599 18.0345 577.697 19.0335C578.796 20.0851 580.417 20.5583 582.562 20.5583H589.885L589.257 21.3996Z" fill="#1D1D1B"/>
<path d="M226.932 68.142V44.9548H229.339V64.146L244.089 44.9548H246.286V68.142H243.88V49.0034L229.129 68.1946H226.932V68.142Z" fill="#1D1D1B"/>
<path d="M256.59 68.142H254.132V44.9548H256.59V68.142ZM271.236 57.4685H256.328V55.3128H271.236V57.4685ZM271.026 44.9548H273.433V68.142H271.026V44.9548Z" fill="#1D1D1B"/>
<path d="M283.685 68.142H281.226V44.9548H283.685V68.142ZM298.383 57.4685H283.476V55.3128H298.383V57.4685ZM298.121 44.9548H300.527V68.142H298.121V44.9548Z" fill="#1D1D1B"/>
<path d="M318.52 68.3523C316.794 68.3523 315.173 68.0368 313.708 67.4585C312.244 66.8801 310.936 66.0388 309.838 64.9873C308.739 63.9357 307.902 62.6738 307.275 61.2542C306.647 59.8346 306.385 58.2572 306.385 56.5747C306.385 54.8922 306.699 53.3148 307.275 51.8952C307.85 50.4756 308.739 49.2137 309.838 48.1621C310.936 47.1105 312.191 46.2693 313.656 45.6909C315.121 45.1125 316.742 44.7971 318.52 44.7971C320.247 44.7971 321.868 45.1125 323.333 45.6909C324.797 46.2693 326.105 47.1105 327.151 48.1621C328.249 49.2137 329.086 50.4756 329.714 51.8952C330.342 53.3148 330.603 54.8922 330.603 56.5747C330.603 58.2572 330.289 59.8346 329.714 61.2542C329.086 62.6738 328.249 63.9357 327.151 64.9873C326.053 66.0388 324.797 66.8801 323.333 67.4585C321.816 68.0894 320.247 68.3523 318.52 68.3523ZM318.52 66.1966C319.88 66.1966 321.188 65.9337 322.339 65.4605C323.49 64.9873 324.536 64.3038 325.425 63.4625C326.314 62.5687 326.994 61.5697 327.465 60.4129C327.936 59.2562 328.197 57.9943 328.197 56.5747C328.197 55.1551 327.936 53.8932 327.465 52.7364C326.994 51.5797 326.314 50.5807 325.425 49.6869C324.536 48.793 323.542 48.1621 322.339 47.6889C321.188 47.2157 319.88 46.9528 318.52 46.9528C317.161 46.9528 315.853 47.2157 314.65 47.6889C313.447 48.1621 312.453 48.8456 311.564 49.6869C310.675 50.5807 309.995 51.5797 309.524 52.7364C309.053 53.8932 308.792 55.1551 308.792 56.5747C308.792 57.9417 309.053 59.2036 309.524 60.3604C309.995 61.5171 310.675 62.5687 311.564 63.4099C312.453 64.3038 313.447 64.9347 314.65 65.4079C315.853 65.9337 317.108 66.1966 318.52 66.1966Z" fill="#1D1D1B"/>
<path d="M336.514 68.142V44.9548H346.086C348.544 44.9548 350.427 45.4806 351.839 46.4796C353.252 47.4786 353.932 48.9508 353.932 50.8962C353.932 52.8416 353.252 54.2612 351.944 55.2602C350.584 56.2592 348.858 56.7324 346.661 56.7324L347.236 55.8912C349.799 55.8912 351.787 56.417 353.095 57.4159C354.455 58.4149 355.082 59.9397 355.082 61.8851C355.082 63.8831 354.402 65.4079 352.99 66.5121C351.578 67.6162 349.486 68.142 346.713 68.142H336.514ZM338.92 55.4705H345.981C347.76 55.4705 349.119 55.1025 350.061 54.419C351.003 53.6829 351.473 52.6313 351.473 51.2117C351.473 49.792 351.003 48.7405 350.061 48.0044C349.119 47.2683 347.76 46.9528 345.981 46.9528H338.92V55.4705ZM338.92 66.1966H346.713C348.649 66.1966 350.166 65.8285 351.159 65.0924C352.153 64.3563 352.676 63.2522 352.676 61.7274C352.676 60.2026 352.153 59.0985 351.159 58.4149C350.166 57.7314 348.649 57.3634 346.713 57.3634H338.92V66.1966Z" fill="#1D1D1B"/>
<path d="M357.855 68.142L368.421 44.9548H370.827L381.393 68.142H378.83L369.153 46.3744H370.147L360.365 68.142H357.855ZM361.987 61.9903L362.719 59.9923H376.11L376.842 61.9903H361.987Z" fill="#1D1D1B"/>
<path d="M385.838 68.142V44.9548H388.244V66.0389H402.158V44.9548H404.564V68.142H385.838ZM405.976 73.6102V67.5111L406.604 68.1946H402.21V66.0914H408.278V73.6102H405.976Z" fill="#1D1D1B"/>
<path d="M413.142 68.142V44.9548H415.548V64.146L430.299 44.9548H432.495V68.142H430.089V49.0034L415.339 68.1946H413.142V68.142Z" fill="#1D1D1B"/>
<path d="M454.307 68.142V60.4655L454.987 61.149H447.455C445.624 61.149 444.055 60.8336 442.748 60.2026C441.44 59.5717 440.446 58.6253 439.766 57.4685C439.086 56.3118 438.72 54.8922 438.72 53.2096C438.72 51.422 439.086 49.9498 439.818 48.7405C440.551 47.5311 441.649 46.5847 443.009 45.9538C444.369 45.3228 445.991 45.0074 447.821 45.0074H456.766V68.1946H454.307V68.142ZM438.668 68.142L444.317 59.9923H446.827L441.283 68.142H438.668ZM454.307 59.782V46.3744L454.987 47.0579H447.874C445.729 47.0579 444.055 47.5837 442.905 48.5827C441.754 49.6343 441.126 51.1065 441.126 53.0519C441.126 54.9447 441.649 56.4169 442.748 57.4159C443.846 58.4675 445.468 58.9407 447.612 58.9407H454.935L454.307 59.782Z" fill="#1D1D1B"/>
<path d="M464.559 68.142V44.9548H466.547L477.113 63.0419H476.067L486.528 44.9548H488.515V68.142H486.162V48.6353H486.737L477.113 65.1976H475.962L466.285 48.6353H466.913V68.142H464.559Z" fill="#1D1D1B"/>
<path d="M226.932 106.524V83.3372H236.505C238.963 83.3372 240.846 83.863 242.258 84.862C243.67 85.861 244.35 87.3332 244.35 89.2786C244.35 91.2241 243.67 92.6437 242.363 93.6427C241.003 94.6417 239.277 95.1149 237.08 95.1149L237.655 94.2736C240.218 94.2736 242.206 94.7994 243.514 95.7984C244.874 96.7974 245.501 98.3222 245.501 100.268C245.501 102.266 244.821 103.79 243.409 104.895C241.997 105.999 239.904 106.524 237.132 106.524H226.932ZM229.339 93.853H236.4C238.178 93.853 239.538 93.4849 240.48 92.8014C241.421 92.1179 241.892 91.0137 241.892 89.5941C241.892 88.1745 241.421 87.1229 240.48 86.3868C239.538 85.6507 238.178 85.3352 236.4 85.3352H229.339V93.853ZM229.339 104.579H237.132C239.068 104.579 240.584 104.211 241.578 103.475C242.572 102.739 243.095 101.635 243.095 100.11C243.095 98.5851 242.572 97.4809 241.578 96.7974C240.584 96.1139 239.068 95.7458 237.132 95.7458H229.339V104.579Z" fill="#1D1D1B"/>
<path d="M260.356 106.524V83.3372H268.987C270.922 83.3372 272.648 83.6527 274.008 84.2837C275.42 84.9146 276.519 85.8084 277.251 87.0178C277.983 88.1745 278.402 89.6467 278.402 91.3292C278.402 92.9591 278.036 94.3788 277.251 95.5355C276.519 96.6922 275.42 97.6386 274.008 98.2696C272.596 98.9005 270.922 99.216 268.987 99.216H261.716L262.814 98.0593V106.524H260.356ZM262.814 98.2696L261.716 97.0603H268.934C271.236 97.0603 273.014 96.5345 274.165 95.5355C275.316 94.5365 275.943 93.1169 275.943 91.2766C275.943 89.4364 275.368 87.9642 274.165 86.9652C272.962 85.9662 271.236 85.4404 268.934 85.4404H261.716L262.814 84.2837V98.2696Z" fill="#1D1D1B"/>
<path d="M285.881 104.421H299.743V106.524H283.475V83.3372H299.272V85.4404H285.881V104.421ZM285.62 93.7478H297.807V95.851H285.62V93.7478Z" fill="#1D1D1B"/>
<path d="M315.277 106.735C313.551 106.735 311.93 106.419 310.465 105.841C309.001 105.263 307.745 104.421 306.647 103.37C305.549 102.318 304.712 101.056 304.136 99.6366C303.509 98.217 303.247 96.6396 303.247 94.9571C303.247 93.2746 303.561 91.6972 304.136 90.2776C304.764 88.858 305.601 87.5961 306.699 86.5445C307.798 85.493 309.053 84.6517 310.518 84.0733C311.982 83.495 313.604 83.1795 315.33 83.1795C317.004 83.1795 318.573 83.4424 320.037 84.0208C321.502 84.5991 322.757 85.4404 323.751 86.5445L322.182 88.1219C321.24 87.1755 320.194 86.4394 319.043 86.0187C317.893 85.5981 316.69 85.3878 315.33 85.3878C313.97 85.3878 312.662 85.6507 311.459 86.1239C310.256 86.5971 309.262 87.2806 308.373 88.1219C307.484 89.0157 306.804 90.0147 306.333 91.1714C305.862 92.3282 305.601 93.5901 305.601 95.0097C305.601 96.3767 305.862 97.6912 306.333 98.8479C306.804 100.005 307.536 101.004 308.373 101.898C309.262 102.791 310.308 103.422 311.459 103.895C312.662 104.369 313.918 104.632 315.33 104.632C316.637 104.632 317.893 104.421 319.043 103.948C320.194 103.527 321.24 102.791 322.182 101.845L323.751 103.422C322.757 104.526 321.502 105.42 320.037 105.999C318.52 106.472 316.951 106.735 315.277 106.735Z" fill="#1D1D1B"/>
<path d="M328.825 106.524V83.3372H348.23V106.524H345.824V84.8095L346.452 85.493H330.603L331.231 84.8095V106.524H328.825Z" fill="#1D1D1B"/>
<path d="M362.876 102.371L352.886 83.3372H355.501L364.184 100.32L362.876 102.371ZM355.71 104.264C356.809 104.684 357.907 104.789 358.848 104.579C359.842 104.369 360.732 103.58 361.568 102.266L362.667 100.478L362.876 100.162L371.716 83.3898H374.174L363.713 102.791C363.033 104.158 362.196 105.157 361.202 105.788C360.261 106.472 359.215 106.787 358.169 106.84C357.122 106.892 356.024 106.682 354.978 106.262L355.71 104.264Z" fill="#1D1D1B"/>
<path d="M378.097 106.524V83.3372H394.992V85.4404H380.503V93.0117H388.035C390.755 93.0117 392.848 93.5901 394.26 94.6942C395.672 95.7984 396.404 97.4283 396.404 99.6366C396.404 101.845 395.62 103.58 394.103 104.789C392.586 105.999 390.389 106.577 387.512 106.577H378.097V106.524ZM380.503 104.579H387.512C389.657 104.579 391.278 104.158 392.324 103.317C393.371 102.476 393.946 101.267 393.946 99.6892C393.946 96.5345 391.801 94.9571 387.512 94.9571H380.503V104.579Z" fill="#1D1D1B"/>
<path d="M399.752 106.735C399.438 106.735 399.124 106.735 398.863 106.682C398.601 106.63 398.235 106.577 397.921 106.524L398.13 104.316C398.497 104.421 398.863 104.474 399.229 104.474C400.223 104.474 401.007 104.106 401.635 103.317C402.263 102.528 402.681 101.319 402.995 99.6892C403.309 98.0593 403.518 95.9035 403.57 93.3272L403.884 83.3898H419.524V106.577H417.118V84.862L417.745 85.5455H405.401L405.976 84.862L405.663 93.3272C405.558 95.6407 405.401 97.6386 405.192 99.3212C404.983 101.004 404.616 102.423 404.146 103.527C403.675 104.632 403.1 105.473 402.367 105.999C401.687 106.472 400.798 106.735 399.752 106.735Z" fill="#1D1D1B"/>
<path d="M427.37 106.524V83.3372H429.776V102.528L444.526 83.3372H446.723V106.524H444.317V87.3332L429.566 106.524H427.37Z" fill="#1D1D1B"/>
<path d="M454.569 106.524V83.3372H456.923V106.524H454.569ZM456.243 95.9036V93.7478H463.461V95.9036H456.243ZM463.67 95.22L461.421 94.7994L469.999 83.3372H472.614L463.67 95.22ZM470.365 106.524L461.526 94.9571L463.513 93.7478L473.19 106.524H470.365Z" fill="#1D1D1B"/>
<path d="M479.414 104.421H493.275V106.524H477.008V83.3372H492.804V85.4404H479.414V104.421ZM479.153 93.7478H491.34V95.851H479.153V93.7478Z" fill="#1D1D1B"/>
<path d="M226.932 144.907V121.72H243.827V123.823H229.339V131.394H236.871C239.591 131.394 241.683 131.973 243.095 133.077C244.507 134.181 245.24 135.811 245.24 138.019C245.24 140.227 244.455 141.962 242.938 143.172C241.421 144.381 239.224 144.959 236.348 144.959H226.932V144.907ZM229.339 142.961H236.348C238.492 142.961 240.114 142.541 241.16 141.7C242.206 140.858 242.781 139.649 242.781 138.072C242.781 134.917 240.637 133.34 236.348 133.34H229.339V142.961Z" fill="#1D1D1B"/>
<path d="M247.541 144.907L258.107 121.72H260.513L271.079 144.907H268.516L258.839 123.139H259.833L250.156 144.907H247.541ZM251.673 138.755L252.406 136.757H265.796L266.528 138.755H251.673Z" fill="#1D1D1B"/>
<path d="M289.02 142.804L288.444 143.487V121.772H290.85V143.487L290.17 142.804H301.992L301.312 143.487V121.772H303.718V144.959H275.42V121.772H277.826V143.487L277.199 142.804H289.02Z" fill="#1D1D1B"/>
<path d="M311.616 144.907V121.72H313.97V144.907H311.616ZM313.237 134.286V132.13H320.456V134.286H313.237ZM320.717 133.602L318.468 133.182L327.046 121.72H329.662L320.717 133.602ZM327.412 144.907L318.573 133.34L320.56 132.13L330.237 144.907H327.412Z" fill="#1D1D1B"/>
<path d="M344.098 145.117C342.372 145.117 340.751 144.802 339.286 144.223C337.822 143.645 336.514 142.804 335.415 141.752C334.317 140.701 333.48 139.439 332.852 138.019C332.225 136.599 331.963 135.022 331.963 133.34C331.963 131.657 332.277 130.08 332.852 128.66C333.428 127.24 334.317 125.979 335.415 124.927C336.514 123.875 337.769 123.034 339.234 122.456C340.698 121.877 342.32 121.562 344.098 121.562C345.824 121.562 347.446 121.877 348.91 122.456C350.375 123.034 351.683 123.875 352.729 124.927C353.827 125.979 354.664 127.24 355.292 128.66C355.919 130.08 356.181 131.657 356.181 133.34C356.181 135.022 355.867 136.599 355.292 138.019C354.664 139.439 353.827 140.701 352.729 141.752C351.63 142.804 350.375 143.645 348.91 144.223C347.446 144.854 345.824 145.117 344.098 145.117ZM344.098 142.961C345.458 142.961 346.766 142.699 347.917 142.225C349.067 141.752 350.113 141.069 351.003 140.227C351.892 139.334 352.572 138.335 353.043 137.178C353.513 136.021 353.775 134.759 353.775 133.34C353.775 131.973 353.513 130.658 353.043 129.501C352.572 128.345 351.892 127.346 351.003 126.452C350.113 125.558 349.12 124.927 347.917 124.454C346.714 123.981 345.458 123.718 344.098 123.718C342.738 123.718 341.431 123.981 340.228 124.454C339.025 124.927 338.031 125.611 337.142 126.452C336.252 127.346 335.572 128.345 335.102 129.501C334.631 130.658 334.369 131.92 334.369 133.34C334.369 134.707 334.631 135.969 335.102 137.125C335.572 138.282 336.252 139.334 337.142 140.175C338.031 141.069 339.025 141.7 340.228 142.173C341.431 142.699 342.738 142.961 344.098 142.961Z" fill="#1D1D1B"/>
<path d="M362.092 144.907V121.72H370.722C372.657 121.72 374.384 122.035 375.743 122.666C377.156 123.297 378.254 124.191 378.986 125.4C379.719 126.557 380.137 128.029 380.137 129.712C380.137 131.342 379.771 132.761 378.986 133.918C378.254 135.075 377.156 136.021 375.743 136.652C374.331 137.283 372.657 137.598 370.722 137.598H363.452L364.55 136.442V144.907H362.092ZM364.55 136.652L363.452 135.443H370.67C372.971 135.443 374.75 134.917 375.9 133.918C377.051 132.919 377.679 131.499 377.679 129.659C377.679 127.819 377.103 126.347 375.9 125.348C374.697 124.349 372.971 123.823 370.67 123.823H363.452L364.55 122.666V136.652Z" fill="#1D1D1B"/>
<path d="M389.029 144.907V123.192L389.709 123.875H380.922V121.772H399.543V123.875H390.808L391.435 123.192V144.907H389.029Z" fill="#1D1D1B"/>
<path d="M413.665 145.117C411.939 145.117 410.318 144.802 408.853 144.223C407.388 143.645 406.081 142.804 404.982 141.752C403.884 140.701 403.047 139.439 402.419 138.019C401.792 136.599 401.53 135.022 401.53 133.34C401.53 131.657 401.844 130.08 402.419 128.66C402.995 127.24 403.884 125.979 404.982 124.927C406.081 123.875 407.336 123.034 408.801 122.456C410.265 121.877 411.887 121.562 413.665 121.562C415.391 121.562 417.013 121.877 418.477 122.456C419.942 123.034 421.25 123.875 422.296 124.927C423.394 125.979 424.231 127.24 424.859 128.66C425.486 130.08 425.748 131.657 425.748 133.34C425.748 135.022 425.434 136.599 424.859 138.019C424.231 139.439 423.394 140.701 422.296 141.752C421.197 142.804 419.942 143.645 418.477 144.223C417.013 144.854 415.391 145.117 413.665 145.117ZM413.665 142.961C415.025 142.961 416.333 142.699 417.484 142.225C418.634 141.752 419.68 141.069 420.57 140.227C421.459 139.334 422.139 138.335 422.61 137.178C423.08 136.021 423.342 134.759 423.342 133.34C423.342 131.973 423.08 130.658 422.61 129.501C422.139 128.345 421.459 127.346 420.57 126.452C419.68 125.558 418.687 124.927 417.484 124.454C416.281 123.981 415.025 123.718 413.665 123.718C412.305 123.718 410.998 123.981 409.795 124.454C408.592 124.927 407.598 125.611 406.708 126.452C405.819 127.346 405.139 128.345 404.669 129.501C404.198 130.658 403.936 131.92 403.936 133.34C403.936 134.707 404.198 135.969 404.669 137.125C405.139 138.282 405.819 139.334 406.708 140.175C407.598 141.069 408.592 141.7 409.795 142.173C410.998 142.699 412.305 142.961 413.665 142.961Z" fill="#1D1D1B"/>
<path d="M441.754 145.117C440.028 145.117 438.406 144.802 436.942 144.223C435.477 143.645 434.222 142.804 433.123 141.752C432.025 140.701 431.188 139.439 430.613 138.019C429.985 136.599 429.723 135.022 429.723 133.34C429.723 131.657 430.037 130.08 430.613 128.66C431.24 127.24 432.077 125.979 433.176 124.927C434.274 123.875 435.529 123.034 436.994 122.456C438.458 121.877 440.08 121.562 441.806 121.562C443.48 121.562 445.049 121.825 446.514 122.403C447.978 122.982 449.234 123.823 450.227 124.927L448.658 126.504C447.717 125.558 446.671 124.822 445.52 124.401C444.369 123.981 443.166 123.77 441.806 123.77C440.446 123.77 439.138 124.033 437.935 124.506C436.732 124.98 435.739 125.663 434.849 126.504C433.96 127.398 433.28 128.397 432.809 129.554C432.339 130.711 432.077 131.973 432.077 133.392C432.077 134.759 432.339 136.074 432.809 137.23C433.28 138.387 434.012 139.386 434.849 140.28C435.739 141.174 436.785 141.805 437.935 142.278C439.138 142.751 440.394 143.014 441.806 143.014C443.114 143.014 444.369 142.804 445.52 142.331C446.671 141.91 447.717 141.174 448.658 140.227L450.227 141.805C449.234 142.909 447.978 143.803 446.514 144.381C444.997 144.854 443.428 145.117 441.754 145.117Z" fill="#1D1D1B"/>
<path d="M459.59 144.907V123.192L460.27 123.875H451.483V121.772H470.104V123.875H461.369L461.996 123.192V144.907H459.59Z" fill="#1D1D1B"/>
<path d="M469.894 144.907L480.46 121.72H482.866L493.432 144.907H490.869L481.192 123.139H482.186L472.51 144.907H469.894ZM474.079 138.755L474.811 136.757H488.201L488.934 138.755H474.079Z" fill="#1D1D1B"/>
<path d="M500.337 144.907H497.878V121.72H500.337V144.907ZM514.982 134.233H500.075V132.078H514.982V134.233ZM514.773 121.72H517.179V144.907H514.773V121.72Z" fill="#1D1D1B"/>
<defs>
<linearGradient id="paint0_linear_3697_10661" x1="-15.817" y1="65.3745" x2="192.127" y2="66.9699" gradientUnits="userSpaceOnUse">
<stop stop-color="#49E962"/>
<stop offset="1" stop-color="#2E80FC"/>
</linearGradient>
<linearGradient id="paint1_linear_3697_10661" x1="-16.3705" y1="137.478" x2="191.574" y2="139.073" gradientUnits="userSpaceOnUse">
<stop stop-color="#49E962"/>
<stop offset="1" stop-color="#2E80FC"/>
</linearGradient>
<linearGradient id="paint2_linear_3697_10661" x1="-15.5079" y1="25.0725" x2="192.436" y2="26.6679" gradientUnits="userSpaceOnUse">
<stop stop-color="#49E962"/>
<stop offset="1" stop-color="#2E80FC"/>
</linearGradient>
</defs>
</svg>
