<svg width="22" height="17" viewBox="0 0 22 17" fill="none" xmlns="http://www.w3.org/2000/svg">
<path d="M20.9292 5.78333C21.0917 5.65417 21.3333 5.775 21.3333 5.97917V14.5C21.3333 15.6042 20.4375 16.5 19.3333 16.5H2C0.895833 16.5 0 15.6042 0 14.5V5.98333C0 5.775 0.2375 5.65833 0.404167 5.7875C1.3375 6.5125 2.575 7.43333 6.825 10.5208C7.70417 11.1625 9.1875 12.5125 10.6667 12.5042C12.1542 12.5167 13.6667 11.1375 14.5125 10.5208C18.7625 7.43333 19.9958 6.50833 20.9292 5.78333ZM10.6667 11.1667C11.6333 11.1833 13.025 9.95 13.725 9.44167C19.2542 5.42917 19.675 5.07917 20.95 4.07917C21.1917 3.89167 21.3333 3.6 21.3333 3.29167V2.5C21.3333 1.39583 20.4375 0.5 19.3333 0.5H2C0.895833 0.5 0 1.39583 0 2.5V3.29167C0 3.6 0.141667 3.8875 0.383333 4.07917C1.65833 5.075 2.07917 5.42917 7.60833 9.44167C8.30833 9.95 9.7 11.1833 10.6667 11.1667Z" fill="#2E80FC"/>
</svg>
