<svg width="14" height="16" viewBox="0 0 14 16" fill="none" xmlns="http://www.w3.org/2000/svg">
<path fill-rule="evenodd" clip-rule="evenodd" d="M6.54545 16C6.54545 16 13.0909 11.6364 13.0909 6.54545C13.0909 4.80949 12.4013 3.14463 11.1738 1.91712C9.94628 0.689608 8.28142 0 6.54545 0C4.80949 0 3.14463 0.689608 1.91712 1.91712C0.689608 3.14463 0 4.80949 0 6.54545C0 11.6364 6.54545 16 6.54545 16ZM8.72727 6.54545C8.72727 7.75044 7.75044 8.72727 6.54545 8.72727C5.34047 8.72727 4.36364 7.75044 4.36364 6.54545C4.36364 5.34047 5.34047 4.36364 6.54545 4.36364C7.75044 4.36364 8.72727 5.34047 8.72727 6.54545Z" fill="#2E80FC"/>
</svg>
