<svg width="33" height="33" viewBox="0 0 33 33" fill="none" xmlns="http://www.w3.org/2000/svg">
<g id="Group 331">
<rect id="Rectangle 315" x="0.833374" y="1" width="31" height="31" rx="15.5" stroke="#2E80FC"/>
<path id="Vector" d="M22.9915 13.1103C23.0945 12.7587 22.9915 12.5 22.4959 12.5H20.8557C20.438 12.5 20.2459 12.7222 20.1429 12.9697C20.1429 12.9697 19.3075 15.0256 18.1268 16.3587C17.7453 16.7441 17.5699 16.8678 17.3611 16.8678C17.258 16.8678 17.0993 16.7441 17.0993 16.3925V13.1103C17.0993 12.6884 16.9823 12.5 16.6371 12.5H14.0585C13.7968 12.5 13.6408 12.6969 13.6408 12.8797C13.6408 13.2791 14.2312 13.3719 14.2924 14.4969V16.9381C14.2924 17.4725 14.1977 17.5709 13.9889 17.5709C13.432 17.5709 12.0787 15.5066 11.2767 13.1441C11.1152 12.6856 10.9565 12.5 10.536 12.5H8.89586C8.42805 12.5 8.33337 12.7222 8.33337 12.9697C8.33337 13.4084 8.89029 15.5881 10.9258 18.4681C12.2819 20.4341 14.1922 21.5 15.9298 21.5C16.974 21.5 17.1021 21.2638 17.1021 20.8559C17.1021 18.9772 17.0074 18.8 17.5309 18.8C17.7732 18.8 18.1909 18.9237 19.1655 19.8716C20.2793 20.9966 20.4631 21.5 21.0868 21.5H22.727C23.1948 21.5 23.4315 21.2638 23.295 20.7969C22.9832 19.8153 20.8752 17.7959 20.7805 17.6609C20.5383 17.3459 20.6079 17.2053 20.7805 16.9241C20.7833 16.9212 22.7855 14.075 22.9915 13.1103Z" fill="#2E80FC"/>
</g>
</svg>
